<svg width="46" height="46" viewBox="0 0 46 46" fill="none" xmlns="http://www.w3.org/2000/svg">
<g clip-path="url(#clip0_14_534)">
<path d="M7.86021 24.045C6.82658 22.8233 6.34469 21.6251 7.16438 20.794C7.85789 20.0901 8.95532 19.8645 10.4747 21.3167C10.4747 21.3167 15.0175 25.6844 16.5513 26.872C16.899 27.1385 17.3012 27.1466 17.6277 26.7373C17.904 26.3886 17.7669 26.1219 17.4699 25.765C17.4699 25.765 10.8893 17.7336 10.0336 16.7583C8.6058 15.1263 8.98467 13.9487 9.51754 13.3554C10.2583 12.5252 11.6726 12.24 13.1721 13.9343L21.0424 22.6236C21.2756 22.8286 21.6212 22.8288 21.8556 22.6289C21.8861 22.603 21.9165 22.5771 21.947 22.5512C22.1874 22.3442 22.2293 21.9881 22.0469 21.729C20.6224 19.715 14.9538 11.6894 14.0933 10.2111C13.1027 8.50493 13.3692 7.56497 14.1902 6.95752C15.1652 6.23681 16.1413 6.19053 17.4656 7.80592C18.9022 9.56535 24.539 17.0115 25.9827 19.0204C26.172 19.2821 26.5309 19.3535 26.8046 19.1861C26.8075 19.1825 26.8141 19.1819 26.817 19.1784C27.0783 19.0187 27.3006 18.7246 27.15 18.3506C26.26 16.1775 22.2712 9.52632 21.4218 7.99104C20.2592 5.8931 20.6553 5.1054 21.5959 4.50968C22.5833 3.8865 23.702 4.19856 24.574 5.59021C25.1635 6.53475 35.3665 21.5515 35.3665 21.5515C35.0159 19.2023 35.4545 17.4728 35.8043 15.7451C36.4415 12.6016 38.5317 10.8014 40.2234 11.362C41.1033 11.6539 41.3266 12.3797 41.289 12.9558C41.2106 14.0754 40.7574 17.5634 40.8604 20.2519C41.1012 26.5534 43.6794 33.598 37.0481 38.8057C32.61 42.2923 27.4946 42.2366 23.9273 40.2148C19.6021 37.7645 8.70498 25.0444 7.86021 24.045Z" fill="#F9C833"/>
<path d="M40.1726 17.3984C39.8171 19.9361 40.0269 22.9895 40.1693 24.2857C40.7261 29.3366 41.114 33.7157 36.421 38.1938C35.8446 38.7452 34.0047 40.1302 31.7908 40.9714C31.079 41.2395 31.3785 41.4481 31.8236 41.3533C34.2783 40.8315 36.0589 39.5838 37.0419 38.8097C43.6699 33.6023 41.2561 26.5915 41.0154 20.29C40.9124 17.6015 41.3297 13.3173 41.2824 12.9565C41.2319 12.5961 40.5281 14.8607 40.1726 17.3984Z" fill="#E9A506"/>
<path d="M27.1031 18.898C27.1031 18.898 26.5979 18.9491 26.0552 18.3258C24.4279 16.4627 19.2032 9.33948 17.73 7.60985C16.0494 5.63659 14.7464 6.5759 14.4494 6.7751C14.4494 6.7751 15.588 6.70687 16.3021 7.57711C17.7598 9.35099 23.4095 17.385 25.1115 19.0633C26.2111 20.1472 27.1031 18.898 27.1031 18.898Z" fill="#E9A506"/>
<path d="M9.28537 21.2318C9.77395 21.6659 14.1051 25.9188 15.662 27.0713C16.9993 28.0603 17.7857 26.5644 17.7857 26.5644C17.7857 26.5644 17.3383 26.6692 16.6745 26.2615C15.025 25.2428 10.9861 21.4361 10.0816 20.6398C8.73908 19.4572 7.68097 20.3766 7.45352 20.5462C7.45678 20.5459 8.12909 20.2092 9.28537 21.2318Z" fill="#E9A506"/>
<path d="M22.1727 22.2238C22.1727 22.2238 21.7839 22.5666 20.9327 21.7422C20.313 21.1394 13.1721 13.9342 13.1721 13.9342C11.3821 12.126 10.1752 12.8292 9.92853 13.0039C9.92853 13.0039 10.7301 12.8853 11.7753 13.8821C12.2527 14.3371 19.9092 22.4017 20.2112 22.6726C21.3158 23.6704 22.1532 22.6435 22.1727 22.2238Z" fill="#E9A506"/>
<path d="M35.1806 19.8646C35.1806 19.8646 25.3524 6.44455 24.7194 5.52716C23.3127 3.4918 21.9759 4.28294 21.748 4.41309C21.748 4.41309 22.5065 4.11758 23.5704 5.58979C24.1379 6.37188 31.4304 16.9882 33.7585 20.3809C33.9783 21.0346 34.0477 21.9066 33.5985 22.5151C31.9892 24.7041 29.8882 26.9825 31.0468 32.0291C31.3389 33.3078 31.9343 34.4887 32.3456 35.0454C32.8657 35.7431 33.3577 35.4136 33.077 34.8807C32.8882 34.5202 32.56 33.6595 32.4753 33.2858C32.0804 31.5463 31.0195 28.5405 34.1207 24.5222C34.6462 23.8506 35.9539 21.848 35.1806 19.8646Z" fill="#E9A506"/>
<path d="M34.9027 11.0493C34.2973 9.48438 33.4534 8.07691 32.4193 6.88487C31.4885 5.81137 30.4 4.91404 29.1898 4.22564C29.0368 4.13812 28.8245 3.84231 28.9524 3.5242C29.0802 3.20609 29.4231 3.21314 29.5552 3.25329C31.0291 3.70285 32.2855 4.60076 33.3751 5.89285C34.6688 7.42887 35.3796 8.92462 35.8336 10.6289C35.8841 10.815 35.9153 11.2135 35.5207 11.3561C35.1295 11.4984 34.9632 11.2015 34.9027 11.0493Z" fill="#B0BEC5"/>
<path d="M32.8482 12.9843C32.2428 11.4194 31.3989 10.0119 30.3648 8.81989C29.434 7.7464 28.3456 6.84906 27.1353 6.16067C26.9823 6.07314 26.77 5.77733 26.8979 5.45922C27.0254 5.13785 27.3686 5.14816 27.5007 5.18831C28.9746 5.63788 30.231 6.53579 31.3206 7.82787C32.6143 9.3639 33.3251 10.8596 33.7792 12.5639C33.8297 12.75 33.8608 13.1485 33.4662 13.2911C33.0782 13.4331 32.909 13.1398 32.8482 12.9843Z" fill="#B0BEC5"/>
<path d="M5.37776 29.1433C6.08772 30.6654 7.02126 32.0117 8.13104 33.1341C9.13125 34.1418 10.2755 34.9681 11.5276 35.5768C11.6862 35.6539 11.9168 35.9348 11.8095 36.2609C11.7024 36.5902 11.3614 36.6027 11.2237 36.573C9.72284 36.2214 8.40866 35.4079 7.23714 34.1894C5.84649 32.7415 5.03538 31.298 4.46931 29.6273C4.40576 29.4425 4.34886 29.0497 4.7344 28.8817C5.11993 28.7136 5.30781 28.9952 5.37776 29.1433Z" fill="#B0BEC5"/>
<path d="M7.29797 27.0762C8.00793 28.5983 8.94147 29.9447 10.0513 31.067C11.0515 32.0747 12.1958 32.901 13.4478 33.5097C13.6064 33.5869 13.837 33.8678 13.7297 34.1938C13.6226 34.5231 13.2816 34.5356 13.1439 34.5059C11.6431 34.1543 10.3289 33.3408 9.15735 32.1223C7.7667 30.6744 6.95559 29.2309 6.38952 27.5603C6.32597 27.3754 6.26907 26.9827 6.65461 26.8146C7.03984 26.6432 7.22803 26.9281 7.29797 27.0762Z" fill="#B0BEC5"/>
</g>
<defs>
<clipPath id="clip0_14_534">
<rect width="41.9311" height="41.9311" fill="white" transform="translate(0.196228 4.14526) rotate(-5.40418)"/>
</clipPath>
</defs>
</svg>
