<svg width="80" height="80" viewBox="0 0 117 117" fill="none" xmlns="http://www.w3.org/2000/svg">
<path d="M61.4118 106.541H8.3847C6.51539 106.541 5 105.026 5 103.156V8.3847C5 6.51539 6.51539 5 8.3847 5H103.156C105.026 5 106.541 6.51539 106.541 8.3847V61.4118" stroke="#323232" stroke-width="8.46176" stroke-linecap="round" stroke-linejoin="round"/>
<path d="M5 78.3353L44.4882 61.4117L75.5147 75.5147" stroke="#323232" stroke-width="8.46176" stroke-linecap="round" stroke-linejoin="round"/>
<path d="M78.3353 44.4883C72.104 44.4883 67.0529 39.437 67.0529 33.2059C67.0529 26.9749 72.104 21.9236 78.3353 21.9236C84.5665 21.9236 89.6176 26.9749 89.6176 33.2059C89.6176 39.437 84.5665 44.4883 78.3353 44.4883Z" stroke="#323232" stroke-width="8.46176" stroke-linecap="round" stroke-linejoin="round"/>
<path d="M78.3353 95.2589H95.2588M95.2588 95.2589H112.182M95.2588 95.2589V78.3353M95.2588 95.2589V112.182" stroke="#323232" stroke-width="8.46176" stroke-linecap="round" stroke-linejoin="round"/>
</svg>
