<svg width="23" height="24" viewBox="0 0 23 24" fill="none" xmlns="http://www.w3.org/2000/svg">
<path d="M11.5 0C10.9917 0 10.5042 0.202587 10.1447 0.563195C9.78527 0.923803 9.58333 1.41289 9.58333 1.92287V9.61435H1.91667C1.40834 9.61435 0.920823 9.81693 0.561379 10.1775C0.201934 10.5382 0 11.0272 0 11.5372C0 12.0472 0.201934 12.5363 0.561379 12.8969C0.920823 13.2575 1.40834 13.4601 1.91667 13.4601H9.58333V21.1516C9.58333 21.6615 9.78527 22.1506 10.1447 22.5112C10.5042 22.8718 10.9917 23.0744 11.5 23.0744C12.0083 23.0744 12.4958 22.8718 12.8553 22.5112C13.2147 22.1506 13.4167 21.6615 13.4167 21.1516V13.4601H21.0833C21.5917 13.4601 22.0792 13.2575 22.4386 12.8969C22.7981 12.5363 23 12.0472 23 11.5372C23 11.0272 22.7981 10.5382 22.4386 10.1775C22.0792 9.81693 21.5917 9.61435 21.0833 9.61435H13.4167V1.92287C13.4167 1.41289 13.2147 0.923803 12.8553 0.563195C12.4958 0.202587 12.0083 0 11.5 0Z" fill="#590020"/>
</svg>
